<?xml version="1.0" standalone="no"?>
<!DOCTYPE svg PUBLIC "-//W3C//DTD SVG 20010904//EN"
 "http://www.w3.org/TR/2001/REC-SVG-20010904/DTD/svg10.dtd">
<svg version="1.0" xmlns="http://www.w3.org/2000/svg"
 width="40.000000pt" height="23.000000pt" viewBox="0 0 40.000000 23.000000"
 preserveAspectRatio="xMidYMid meet">

<g transform="translate(0.000000,23.000000) scale(0.100000,-0.100000)"
fill="#000000" stroke="none">
<path d="M114 211 c-48 -22 -114 -78 -114 -96 0 -18 77 -81 123 -100 49 -20
113 -19 163 4 47 22 114 78 114 96 0 7 -17 27 -37 45 -78 69 -169 87 -249 51z
m190 -35 c22 -13 49 -33 59 -44 17 -19 17 -20 -15 -47 -98 -83 -198 -83 -297
1 l-32 27 23 25 c13 13 46 36 73 49 61 29 126 26 189 -11z"/>
<path d="M156 165 c-43 -44 -17 -110 44 -110 61 0 87 66 44 110 -20 19 -68 19
-88 0z m58 -21 c20 -8 21 -50 1 -58 -24 -9 -45 4 -45 28 0 34 12 42 44 30z"/>
</g>
</svg>
