<svg width="22" height="22" viewBox="0 0 22 22" fill="none" xmlns="http://www.w3.org/2000/svg">
<path fill-rule="evenodd" clip-rule="evenodd" d="M11 8.25C9.48117 8.25 8.25 9.48117 8.25 11C8.25 12.5188 9.48117 13.75 11 13.75C12.5188 13.75 13.75 12.5188 13.75 11C13.75 9.48117 12.5188 8.25 11 8.25ZM10.0833 11C10.0833 10.4937 10.4937 10.0833 11 10.0833C11.5063 10.0833 11.9167 10.4937 11.9167 11C11.9167 11.5063 11.5063 11.9167 11 11.9167C10.4937 11.9167 10.0833 11.5063 10.0833 11Z" fill="white" fill-opacity="0.65"/>
<path fill-rule="evenodd" clip-rule="evenodd" d="M20.011 10.3406C17.9137 6.55587 14.4947 4.58333 11.0002 4.58333C7.50562 4.58333 4.08663 6.55587 1.98936 10.3406C1.78434 10.7107 1.78181 11.1669 1.98043 11.5386C4.04434 15.4012 7.48273 17.4167 11.0002 17.4167C14.5176 17.4167 17.956 15.4012 20.0199 11.5386C20.2185 11.1669 20.216 10.7107 20.011 10.3406ZM11.0002 15.5833C8.30605 15.5833 5.53731 14.0914 3.75092 10.953C5.56306 7.87979 8.31725 6.41666 11.0002 6.41666C13.6831 6.41666 16.4373 7.87979 18.2494 10.953C16.463 14.0914 13.6942 15.5833 11.0002 15.5833Z" fill="white" fill-opacity="0.65"/>
</svg>
