<?xml version="1.0" standalone="no"?>
<!DOCTYPE svg PUBLIC "-//W3C//DTD SVG 20010904//EN"
 "http://www.w3.org/TR/2001/REC-SVG-20010904/DTD/svg10.dtd">
<svg version="1.0" xmlns="http://www.w3.org/2000/svg"
 width="640.000000pt" height="353.000000pt" viewBox="0 0 640.000000 353.000000"
 preserveAspectRatio="xMidYMid meet">

<g transform="translate(0.000000,353.000000) scale(0.100000,-0.100000)"
fill="#FFFFFF" stroke="none">
<path d="M2909 3520 c-664 -56 -1285 -274 -1834 -644 -388 -261 -758 -633
-1024 -1028 l-52 -78 52 -77 c236 -351 556 -688 892 -937 578 -429 1249 -679
1987 -737 290 -23 713 3 1004 62 727 146 1371 483 1895 994 206 200 372 398
520 618 l52 77 -42 63 c-597 886 -1518 1482 -2547 1648 -250 40 -672 58 -903
39z m-424 -397 c-127 -66 -259 -169 -380 -294 -205 -213 -332 -457 -396 -759
-30 -139 -33 -427 -6 -565 83 -426 315 -778 667 -1012 41 -28 94 -60 118 -72
23 -12 42 -23 42 -25 0 -2 -46 7 -102 20 -671 158 -1242 480 -1713 966 -115
118 -266 294 -311 363 -15 23 -14 26 14 67 66 95 246 300 369 418 439 426 959
718 1548 870 163 43 196 48 150 23z m1600 -27 c582 -146 1157 -482 1596 -933
117 -120 329 -373 329 -392 0 -5 -25 -42 -57 -82 -211 -276 -498 -550 -778
-744 -262 -181 -580 -340 -880 -440 -106 -35 -326 -95 -348 -95 -5 0 29 25 77
55 146 91 226 159 344 289 372 412 489 1024 295 1546 -121 325 -342 594 -641
783 -42 27 -68 46 -57 43 11 -3 65 -16 120 -30z m-637 -405 c286 -71 541 -294
651 -571 63 -160 82 -376 46 -545 -96 -457 -522 -782 -985 -751 -351 23 -659
233 -806 551 -64 139 -79 211 -79 395 0 143 3 176 23 245 103 358 389 621 751
690 102 20 289 13 399 -14z"/>
<path d="M2773 2324 c-23 -9 -65 -36 -92 -60 -164 -147 -134 -403 60 -508 68
-38 172 -47 247 -22 65 22 145 93 180 160 23 44 27 63 27 136 0 69 -5 94 -24
132 -29 60 -87 121 -143 149 -56 29 -192 36 -255 13z"/>
</g>
</svg>
